<svg fill="#ffffff" xmlns="http://www.w3.org/2000/svg" viewBox="0 0 100 100"><title>Add Friend</title><path d="M65.5,44.2A22.1,22.1,0,1,0,43.39,22.1,22.11,22.11,0,0,0,65.5,44.2Zm0-35.44A13.34,13.34,0,1,1,52.16,22.1,13.34,13.34,0,0,1,65.5,8.76Z"/><path d="M78.08,48.64H52.92A22,22,0,0,0,31,70.56V100h8.89c-.05-.48-.09-29.44-.09-29.44A13.17,13.17,0,0,1,53,57.4H78A13.17,13.17,0,0,1,91.2,70.56s0,29-.09,29.44H100V70.56A21.94,21.94,0,0,0,78.08,48.64Z"/><path d="M35.66,39.4H24.1V27.84a4.22,4.22,0,0,0-8.44,0V39.4H4.1a4.22,4.22,0,0,0,0,8.44H15.66V59.4a4.22,4.22,0,0,0,8.44,0V47.84H35.66a4.22,4.22,0,1,0,0-8.44Z"/></svg>