<svg xmlns="http://www.w3.org/2000/svg" viewBox="0 0 100 100"><title>Broken Link</title><path d="M93.37,38.82,70.74,61.46a22.68,22.68,0,0,1-32.07,0A4.54,4.54,0,0,1,45.08,55a13.93,13.93,0,0,0,19.24,0L87,32.41a13.64,13.64,0,0,0,0-19.25,14,14,0,0,0-19.24,0L52.32,28.55a4.53,4.53,0,1,1-6.41-6.41L61.3,6.75A22.68,22.68,0,1,1,93.37,38.82Zm1.88,29.32H81.64a4.54,4.54,0,0,1,0-9.07H95.25a4.54,4.54,0,1,1,0,9.07ZM89.38,89.49a4.53,4.53,0,0,1-6.41,0l-13.6-13.6a4.53,4.53,0,0,1,6.41-6.41l13.6,13.6a4.51,4.51,0,0,1,0,6.41ZM68,95.36a4.54,4.54,0,0,1-9.07,0V81.75a4.54,4.54,0,1,1,9.07,0ZM51.53,80.42,38.7,93.25a22.68,22.68,0,0,1-32.07,0,22.71,22.71,0,0,1,0-32.07L25.87,41.94a22.7,22.7,0,0,1,32.08,0,4.54,4.54,0,0,1-6.42,6.41,13.62,13.62,0,0,0-19.24,0L13.05,67.59a13.62,13.62,0,0,0,0,19.25,13.93,13.93,0,0,0,19.24,0L45.12,74a4.53,4.53,0,1,1,6.41,6.41Zm-47-48.56h13.6a4.54,4.54,0,1,1,0,9.07H4.54a4.54,4.54,0,1,1,0-9.07ZM10.4,10.51a4.51,4.51,0,0,1,6.41,0L30.43,24.12A4.54,4.54,0,0,1,24,30.53L10.4,16.92a4.51,4.51,0,0,1,0-6.41ZM31.75,4.64a4.54,4.54,0,0,1,9.07,0V18.25a4.54,4.54,0,1,1-9.07,0Z"/></svg>