<svg id="Layer_1" data-name="Layer 1" xmlns="http://www.w3.org/2000/svg" viewBox="0 0 100 100"><title>Call</title><path d="M20.38,66.51A106.1,106.1,0,0,0,55.67,94.15C60.83,96.6,67.73,99.5,75.42,100c.47,0,.93,0,1.41,0a16.36,16.36,0,0,0,12.68-5.45.35.35,0,0,0,.08-.11,53.37,53.37,0,0,1,4-4.14c1-.93,2-1.91,2.92-2.9,4.41-4.6,4.41-10.44,0-14.9L84,60.09a10.06,10.06,0,0,0-7.29-3.36,10.43,10.43,0,0,0-7.38,3.34l-7.41,7.41c-.69-.39-1.39-.74-2.06-1.07s-1.59-.81-2.27-1.25A78.55,78.55,0,0,1,38.84,48.09,45.4,45.4,0,0,1,32.5,38c2-1.76,3.77-3.61,5.53-5.41l1.91-1.93a10.62,10.62,0,0,0,3.44-7.46,10.54,10.54,0,0,0-3.44-7.46L33.77,9.55c-.73-.73-1.41-1.43-2.12-2.16-1.36-1.41-2.8-2.86-4.2-4.16A10.33,10.33,0,0,0,20.15,0a10.58,10.58,0,0,0-7.37,3.21L5,11A15.92,15.92,0,0,0,.28,21.19c-.39,5,.52,10.22,2.88,16.58,3.63,9.84,9.1,19,17.22,28.74Zm-15-44.88a10.91,10.91,0,0,1,3.29-7l7.71-7.71a5.62,5.62,0,0,1,3.81-1.76,5.3,5.3,0,0,1,3.73,1.81C25.27,8.2,26.58,9.55,28,11l2.16,2.19,6.17,6.18a5.6,5.6,0,0,1,1.95,3.87,5.62,5.62,0,0,1-1.95,3.88c-.64.64-1.28,1.3-1.92,1.95-1.93,1.94-3.73,3.79-5.72,5.55l-.1.1a4,4,0,0,0-1,4.6c0,.07,0,.11.06.17A48.93,48.93,0,0,0,34.86,51.3a82.69,82.69,0,0,0,20,18.19A29.57,29.57,0,0,0,57.58,71a23.86,23.86,0,0,1,2.27,1.24l.23.12a4.27,4.27,0,0,0,2,.52,4.36,4.36,0,0,0,3.09-1.41l7.75-7.75a5.49,5.49,0,0,1,3.79-1.84,5.2,5.2,0,0,1,3.67,1.84L92.88,76.19c2.49,2.48,2.47,5.18-.06,7.81-.87.93-1.78,1.82-2.75,2.76a58,58,0,0,0-4.34,4.49A11.36,11.36,0,0,1,76.85,95c-.36,0-.73,0-1.08,0-6.8-.43-13.12-3.09-17.86-5.34A100.77,100.77,0,0,1,24.32,63.32C16.59,54,11.39,45.35,8,36.07,5.81,30.37,5,25.79,5.34,21.63Zm0,0"/></svg>