<svg id="Layer_1" data-name="Layer 1" xmlns="http://www.w3.org/2000/svg" viewBox="0 0 100 100"><title>Community</title><path d="M79,26.09A12.62,12.62,0,1,0,66.38,13.47,12.63,12.63,0,0,0,79,26.09ZM79,5.85a7.62,7.62,0,1,1-7.61,7.62A7.62,7.62,0,0,1,79,5.85Z"/><path d="M50,26.09A12.62,12.62,0,1,0,37.38,13.47,12.63,12.63,0,0,0,50,26.09ZM50,5.85a7.62,7.62,0,1,1-7.62,7.62A7.62,7.62,0,0,1,50,5.85Z"/><path d="M87.48,28.65H76.74a2.51,2.51,0,1,0,0,5H87.48A7.52,7.52,0,0,1,95,41.19v16a7.56,7.56,0,0,1-5,7.05,2.5,2.5,0,0,0-1.63,2.35V89.17a5,5,0,0,1-5,5H72.1a2.51,2.51,0,1,0,0,5H83.46a10,10,0,0,0,10-10v-21a12.56,12.56,0,0,0,6.58-11v-16A12.52,12.52,0,0,0,87.48,28.65Z"/><path d="M72.22,41.15A12.53,12.53,0,0,0,59.7,28.63H40.28A12.53,12.53,0,0,0,27.76,41.15v16a12.57,12.57,0,0,0,6.57,11v21a10,10,0,0,0,10,10H55.68a10,10,0,0,0,10-10v-21a12.57,12.57,0,0,0,6.57-11Zm-5,16a7.54,7.54,0,0,1-4.92,7,2.53,2.53,0,0,0-1.64,2.35V89.12a5,5,0,0,1-5,5H44.36a5,5,0,0,1-5-5V66.53a2.52,2.52,0,0,0-1.63-2.35,7.51,7.51,0,0,1-5-7v-16a7.52,7.52,0,0,1,7.52-7.52H59.72a7.52,7.52,0,0,1,7.52,7.52Z"/><path d="M21,26.09A12.62,12.62,0,1,0,8.37,13.47,12.65,12.65,0,0,0,21,26.09ZM21,5.85a7.62,7.62,0,1,1-7.62,7.62A7.62,7.62,0,0,1,21,5.85Z"/><path d="M27.9,94.07H16.54a5,5,0,0,1-5-5V66.53A2.52,2.52,0,0,0,10,64.18a7.53,7.53,0,0,1-4.93-7v-16a7.52,7.52,0,0,1,7.52-7.52h10.7a2.52,2.52,0,1,0,0-5H12.52A12.54,12.54,0,0,0,0,41.13v16a12.56,12.56,0,0,0,6.58,11v21a10,10,0,0,0,10,10H27.9a2.51,2.51,0,0,0,0-5Z"/></svg>