<svg id="Layer_1" data-name="Layer 1" xmlns="http://www.w3.org/2000/svg" viewBox="0 0 100 100"><title>Contact (selected)</title><path fill="#f66240" d="M94.76,38.07C89.09,22.55,79.11,7.59,70.67,7.59A6.71,6.71,0,0,0,68.33,8c-2.59.94-4.24,3.33-5.16,6.62L9.11,59.06a6.46,6.46,0,0,0-3.67-1.3,4.57,4.57,0,0,0-1.6.28c-3.89,1.42-5,7.51-2.55,14.17,2.1,5.75,5.94,9.48,9.45,9.48a4.82,4.82,0,0,0,1.63-.28,5.7,5.7,0,0,0,3.38-4.18L29,77.07l-.89,4.63A8.6,8.6,0,0,0,36.3,91.91l16.43.5H53a9.64,9.64,0,0,0,3.31-.58,9.82,9.82,0,0,0,6.39-8.06l.81-7.13,22.18-.28a10.71,10.71,0,0,0,5.92,2.15,6.53,6.53,0,0,0,2.3-.41C102.78,74.87,101,55.06,94.76,38.07ZM56.47,85.84A1.52,1.52,0,0,1,55,87.12H55s-18.12-.32-19.43-.5a1.46,1.46,0,0,1-1.23-1.54L35.49,77l22.68-.22ZM92.66,72c-4,1.41-11.83-10.52-17.52-26.65S68.06,15,72,13.59,83.86,24.12,89.55,40.24,96.64,70.58,92.66,72Z"/></svg>