<svg id="Layer_1" data-name="Layer 1" xmlns="http://www.w3.org/2000/svg" viewBox="0 0 100 100"><title>Donate</title><path d="M86.76,63.1c-3.75,0-11,1.87-15.66,3.17-1.43-5.71-9.17-7.76-16.41-9.23a34.07,34.07,0,0,1-8.5-3.15c-3.25-1.56-6.31-3-10.49-3a42.92,42.92,0,0,0-10.35,1.37,7.07,7.07,0,0,0-5.1-4.11L3.61,44.78A2.86,2.86,0,0,0,3,44.72a3.1,3.1,0,0,0-1.93.69A3,3,0,0,0,0,47.75V80.42a3,3,0,0,0,3,3h12.8a7,7,0,0,0,6.05-3.54c6.85,3.23,25.65,11.71,34.26,11.71,8.15,0,24.58-8.08,35.46-13.43l.18-.09c2.67-1.31,5-2.44,6.42-3.08A3,3,0,0,0,100,72.26C100,66.87,94.56,63.1,86.76,63.1ZM65.21,68.48c-.31.24-1.36.79-4.23.79-4.54,0-11.38-1.34-20.33-4a3.15,3.15,0,0,0-.87-.12,3,3,0,0,0-2.89,2.16,3,3,0,0,0,2,3.76c9.58,2.84,16.77,4.22,22,4.22,3.56,0,6.15-.65,7.92-2l.2-.16a1.2,1.2,0,0,0,.24-.06c5-1.53,14.11-3.95,17.49-3.95a11.09,11.09,0,0,1,6.29,1.6l-3.52,1.72-.61.3c-9.74,4.79-26,12.8-32.79,12.8-6.3,0-23.17-7-32.78-11.65l2.21-15.5A38.62,38.62,0,0,1,35.7,56.9c2.79,0,4.91,1,7.87,2.44A39.35,39.35,0,0,0,53.48,63c8,1.62,11.88,3.33,11.88,5.21C65.36,68.37,65.34,68.38,65.21,68.48Z"/><path d="M71.25,56.22a1.21,1.21,0,0,0,.81.31,1.39,1.39,0,0,0,.82-.31l18.65-18.7c8.92-8.92,9.47-18.15,3.79-23.84A14.62,14.62,0,0,0,85,9.38a14.42,14.42,0,0,0-10.29,4.3,16.29,16.29,0,0,0-2.63,3.5,15.66,15.66,0,0,0-2.63-3.5,14.59,14.59,0,0,0-20.57,0c-5.73,5.69-5.18,14.92,3.74,23.84ZM52.66,17.5a9.16,9.16,0,0,1,6.5-2.67,9,9,0,0,1,6.46,2.66,10.28,10.28,0,0,1,1.73,2.3l4.71,8.52,4.72-8.52a10.33,10.33,0,0,1,1.75-2.32A9,9,0,0,1,85,14.77a9.22,9.22,0,0,1,6.53,2.72c4.58,4.58,1,11.38-3.8,16.22L72.06,49.41,56.41,33.71c-3.82-3.82-5.91-7.78-5.9-11.15A6.91,6.91,0,0,1,52.66,17.5Z"/></svg>