<svg id="Layer_1" data-name="Layer 1" xmlns="http://www.w3.org/2000/svg" viewBox="0 0 100 100"><defs><style>.cls-1{fill-rule:evenodd;}</style></defs><title>Events</title><path class="cls-1" d="M54.91,43.17H45.09a2.57,2.57,0,0,0-2.59,2.56V55.5a2.59,2.59,0,0,0,2.59,2.58h9.82A2.59,2.59,0,0,0,57.5,55.5V45.73A2.57,2.57,0,0,0,54.91,43.17Z"/><path class="cls-1" d="M79.92,43.17H70.1a2.57,2.57,0,0,0-2.59,2.56V55.5a2.59,2.59,0,0,0,2.59,2.58h9.82a2.59,2.59,0,0,0,2.59-2.58V45.73A2.57,2.57,0,0,0,79.92,43.17Z"/><path class="cls-1" d="M29.9,43.17H20.08a2.57,2.57,0,0,0-2.59,2.56V55.5a2.59,2.59,0,0,0,2.59,2.58H29.9a2.59,2.59,0,0,0,2.59-2.58V45.73A2.57,2.57,0,0,0,29.9,43.17Z"/><path class="cls-1" d="M54.91,71.08H45.09a2.57,2.57,0,0,0-2.59,2.56v9.78A2.59,2.59,0,0,0,45.09,86h9.82a2.59,2.59,0,0,0,2.59-2.58V73.64A2.57,2.57,0,0,0,54.91,71.08Z"/><path class="cls-1" d="M79.92,71.08H70.1a2.57,2.57,0,0,0-2.59,2.56v9.78A2.59,2.59,0,0,0,70.1,86h9.82a2.59,2.59,0,0,0,2.59-2.58V73.64A2.57,2.57,0,0,0,79.92,71.08Z"/><path class="cls-1" d="M29.9,71.08H20.08a2.57,2.57,0,0,0-2.59,2.56v9.78A2.59,2.59,0,0,0,20.08,86H29.9a2.59,2.59,0,0,0,2.59-2.58V73.64A2.57,2.57,0,0,0,29.9,71.08Z"/><path class="cls-1" d="M18.3,32.35H81.7a3.58,3.58,0,1,0,0-7.14H18.3a3.58,3.58,0,1,0,0,7.14Z"/><path class="cls-1" d="M89.08,6.47H76.31V3.8a3.59,3.59,0,1,0-7.17,0V6.47H30.86V3.8a3.59,3.59,0,1,0-7.17,0V6.47l-11.37.19a14.17,14.17,0,0,0-12,14V89.4A10.65,10.65,0,0,0,11,100h78.1A10.63,10.63,0,0,0,99.72,89.4V17.1A10.63,10.63,0,0,0,89.08,6.47Zm3.53,13.37h0V89.4a3.54,3.54,0,0,1-3.56,3.52H11A3.54,3.54,0,0,1,7.39,89.4V20.64a7.1,7.1,0,0,1,4.93-6.74l11.37-.34V15.9a3.59,3.59,0,1,0,7.17,0V13.56H69.14V15.9a3.59,3.59,0,1,0,7.17,0V13.56H89.08a3.54,3.54,0,0,1,3.53,3.54Z"/></svg>