<svg xmlns="http://www.w3.org/2000/svg" viewBox="0 0 100 100" fill="#f66240"><title>Fax</title><rect x="25.03" y="37.05" width="27.75" height="3.7"/><rect x="25.03" y="50" width="37" height="3.7"/><rect x="25.03" y="62.95" width="37" height="3.7"/><path d="M90,6.47H10.46A10.25,10.25,0,0,0,0,16.48V49.76A10.25,10.25,0,0,0,10.23,60a10.38,10.38,0,0,0,4.57-1.07V90.46a3.23,3.23,0,0,0,3.06,3.07H82.6a2.85,2.85,0,0,0,2.6-3.07V58.83A9.66,9.66,0,0,0,89.77,60,10.25,10.25,0,0,0,100,49.76V16.48A9.9,9.9,0,0,0,90,6.47ZM85.2,30.63h3.7V25H11.1v5.66h3.7V49.78a4.57,4.57,0,0,1-9.14,0V16.48a4.61,4.61,0,0,1,4.8-4.35H90a4.21,4.21,0,0,1,4.34,4.35V49.76a4.57,4.57,0,0,1-9.14,0Zm-6.31,0c.49,0,.65.16.65.64v56.6H20.46V31.27c0-.38.58-.64,1.11-.64Z"/></svg>