<svg id="Layer_1" data-name="Layer 1" xmlns="http://www.w3.org/2000/svg" viewBox="0 0 100 100"><title>Home</title><path d="M98.75,48.76,50,0,1.22,48.76a4.22,4.22,0,0,0,6,6l3.57-3.57V95.78A4.22,4.22,0,0,0,15,100a4.17,4.17,0,0,0,.8-.08,4.15,4.15,0,0,0,.79.08H36.13a4.38,4.38,0,0,0,1.26-.21,4.38,4.38,0,0,0,1.26.21,4.22,4.22,0,0,0,4.23-4.22v-27H57.12v27A4.22,4.22,0,0,0,61.35,100a4.15,4.15,0,0,0,1.11-.17,4.15,4.15,0,0,0,1.11.17H83.13a4.08,4.08,0,0,0,.93-.11A4,4,0,0,0,85,100a4.21,4.21,0,0,0,4.22-4.22V51.16l3.58,3.57a4.22,4.22,0,0,0,6-6ZM50,60.3H34.43V91.56H19.2V42.72L50,11.94,80.76,42.72V91.56H65.57V60.3Z"/></svg>