<svg id="Layer_1" data-name="Layer 1" xmlns="http://www.w3.org/2000/svg" viewBox="0 0 100 100"><title>Add Friend</title><path d="M99.35,36.46a10.15,10.15,0,0,0-5.3-5.9,10.45,10.45,0,0,0-7.94-.46,10.17,10.17,0,0,0-6,5.25,10.51,10.51,0,0,0-1,4.34L66.79,44.33a16.73,16.73,0,0,0-10.26-7.24V23.78a10.41,10.41,0,1,0-7.54,0V37.09a16.77,16.77,0,0,0-10.75,8l-17.5-5a10.52,10.52,0,0,0-1.34-4.34,10.19,10.19,0,0,0-6.23-4.85,10.49,10.49,0,0,0-8,1A10.16,10.16,0,0,0,.35,38.18a10.43,10.43,0,0,0,.91,8,10.3,10.3,0,0,0,6.16,5,9.67,9.67,0,0,0,2.9.46,9,9,0,0,0,5.18-1.63,9.65,9.65,0,0,0,3.07-2.54l17.55,5c0,.31,0,.61,0,.91A16.6,16.6,0,0,0,38.52,62l-8.44,8.76a10.26,10.26,0,0,0-4.11-1,10.56,10.56,0,0,0-7.49,2.82A10.45,10.45,0,0,0,18,87.31a9.84,9.84,0,0,0,7.37,3.38h.24A10.48,10.48,0,0,0,36.08,80.55a10.62,10.62,0,0,0-.82-4.37l8.5-8.82a16.51,16.51,0,0,0,9,2.66,16.69,16.69,0,0,0,7.74-1.91L72.3,82a10.34,10.34,0,0,0,1.16,11.85,10.44,10.44,0,0,0,8,3.6A10.77,10.77,0,0,0,88.06,95a10.32,10.32,0,0,0,1.22-14.66,10.73,10.73,0,0,0-7-3.61,9.64,9.64,0,0,0-4.16.46l-11.9-14a16.57,16.57,0,0,0,3.26-9.87,15.67,15.67,0,0,0-.13-1.94l12.36-4.64A9.89,9.89,0,0,0,85,49.27a10.08,10.08,0,0,0,4.55,1.07,9,9,0,0,0,3.53-.63,10.15,10.15,0,0,0,5.84-5.27A10.45,10.45,0,0,0,99.35,36.46ZM59,60.1l-.13.08a3.6,3.6,0,0,0-.41.37,9.28,9.28,0,0,1-12-.53,4.58,4.58,0,0,0-.35-.42c-.08-.08-.18-.15-.27-.23a9.1,9.1,0,0,1-2.24-6,10,10,0,0,1,.23-2.06c.06-.13.12-.27.17-.41a3.85,3.85,0,0,0,.17-.73A9.16,9.16,0,1,1,59,60.1Z"/></svg>