<svg id="Layer_1" data-name="Layer 1" xmlns="http://www.w3.org/2000/svg" viewBox="0 0 100 100"><title>Public</title><path d="M91.53,22.17,90,22.66l-8,.7L79.82,27l-1.63-.51-6.34-5.73-.94-3-1.22-3.17-4-3.57L61,10.08l-.11,2.14,4.62,4.5,2.25,2.66L65.23,20.7l-2.07-.61L60.07,18.8l.1-2.48-4.05-1.67-1.35,5.86-4.1.92.41,3.28,5.33,1,.92-5.23,4.4.64,2,1.19h3.29l2.25,4.5,5.94,6.05-.44,2.34L70,34.61l-8.3,4.2-6,7.15L55,49.13H52.82l-4-1.83L45,49.13l1,4.09,1.69-1.94,3-.1-.22,3.68,2.46.72,2.46,2.75,4-1.12,4.58.72,5.32,1.43,2.66.31,4.49,5.11L85,69.9,79.42,80.62l-5.94,2.77-2.26,6.12-8.58,5.74-.91,3.31a49.95,49.95,0,0,0,29.8-76.39Zm0,0"/><path d="M55.74,76.13l-3.63-6.74,3.34-7-3.34-1-3.75-3.76L40,55.78,37.28,50v3.44H36.06L28.9,43.72v-8L23.64,27.2,15.3,28.69H9.69L6.86,26.82,10.46,24l-3.59.82A49.93,49.93,0,0,0,50,100a52.14,52.14,0,0,0,6.28-.44l-.53-6.06s2.3-9,2.3-9.3-2.3-8.08-2.3-8.08Zm0,0"/><path d="M18.58,16.11l8.89-1.23,4.09-2.25L36.17,14l7.36-.42,2.51-4,3.69.61,8.92-.82L61.1,6.65l3.49-2.32,4.9.73,1.8-.26A49.82,49.82,0,0,0,11.44,18.18h0ZM52.11,5l5.11-2.82,3.28,1.9L55.74,7.66l-4.52.46-2-1.33ZM37,5.37l2.25,1,3-1,1.6,2.8L37,10,33.7,8S36.9,6,37,5.37Zm0,0"/></svg>