<svg id="Layer_1" data-name="Layer 1" xmlns="http://www.w3.org/2000/svg" viewBox="0 0 100 100"><title>Rally Logo</title><path d="M97,45.69A2.66,2.66,0,0,1,94.89,43V34.16H86.17A2.66,2.66,0,0,1,83.51,32a2.56,2.56,0,0,1,2.52-3H97.45A2.56,2.56,0,0,1,100,31.61V43.17A2.55,2.55,0,0,1,97,45.69Z"/><path d="M22.64,63.11H14.85l-6-11H6.72v11H0V34.49H10.29a12.4,12.4,0,0,1,7.54,2A7.93,7.93,0,0,1,21,43.07c0,5.44-3.49,7.55-5.6,8.22ZM12.77,40.42a5.53,5.53,0,0,0-3.44-.75H6.68V47H9.33a5.52,5.52,0,0,0,3.44-.78,3.62,3.62,0,0,0,0-5.81Z"/><path d="M42.37,63.11H36L35.9,61a7.63,7.63,0,0,1-5.85,2.61c-3.61,0-7.42-2-7.42-6.51s4.19-6.1,8-6.26l5.14-.21v-.45c0-2.16-1.53-3.28-4.18-3.28a13.13,13.13,0,0,0-6.27,1.82l-1.74-4.31a20.16,20.16,0,0,1,8.75-2.07c3.82,0,6,.87,7.63,2.36s2.45,3.48,2.45,6.93Zm-6.59-9-3.28.2c-2,.09-3.24,1-3.24,2.49s1.29,2.53,3.11,2.53a4.1,4.1,0,0,0,3.41-1.86Z"/><path d="M52.71,63.11H46.07V34.49h6.64Z"/><path d="M63.22,63.11H56.58V34.49h6.64Z"/><path d="M87.69,42.66l-9.13,22.4C77.07,68.71,75.41,71,71.93,71a14.83,14.83,0,0,1-5.68-1l1.32-4.89a9.21,9.21,0,0,0,2.45.53,1.76,1.76,0,0,0,2-1.32l.75-1.79L64.67,42.66H71.6l4.64,13.15,4.61-13.15Z"/></svg>