<svg id="Layer_1" data-name="Layer 1" xmlns="http://www.w3.org/2000/svg" viewBox="0 0 100 100"><title>Representatives</title><path d="M49.94,5A28.37,28.37,0,0,1,78.28,33.33a22.33,22.33,0,0,1-1.68,9.53L52.92,93.22a3.31,3.31,0,0,1-3,1.78,3.19,3.19,0,0,1-2.87-1.69v0l0,0L23.28,42.85a22.27,22.27,0,0,1-1.67-9.52A28.36,28.36,0,0,1,49.94,5m0,45.39A17.06,17.06,0,1,0,32.88,33.33,17.08,17.08,0,0,0,49.94,50.39M49.94,0A33.31,33.31,0,0,0,16.61,33.33,27.22,27.22,0,0,0,18.76,45L42.52,95.38A8.15,8.15,0,0,0,49.94,100a8.32,8.32,0,0,0,7.49-4.62L81.13,45a27.37,27.37,0,0,0,2.15-11.66A33.32,33.32,0,0,0,49.94,0Zm0,45.39A12.06,12.06,0,1,1,62,33.33,12.09,12.09,0,0,1,49.94,45.39Z"/></svg>