<svg fill="#ffffff" xmlns="http://www.w3.org/2000/svg" viewBox="0 0 100 100"><title>Settings</title><path d="M50,5a41.66,41.66,0,0,1,6.6.52l2,10.48.52,2.71,2.57,1a31.47,31.47,0,0,1,8.61,5l2.17,1.77,2.64-.92,10.12-3.52a42.35,42.35,0,0,1,6.57,11.38l-8,7L81.62,42.3l.51,2.81a27.52,27.52,0,0,1,.36,4.9,27.64,27.64,0,0,1-.36,4.91l-.51,2.81,2.16,1.87,8,7A42.25,42.25,0,0,1,85.24,78L75.12,74.43l-2.64-.92-2.17,1.78a32,32,0,0,1-8.61,5l-2.57,1L58.61,84l-2,10.47a43.09,43.09,0,0,1-13.22,0L41.39,84l-.52-2.7-2.57-1a30.52,30.52,0,0,1-8.55-5l-2.18-1.85-2.69.94L14.76,78A42.25,42.25,0,0,1,8.19,66.57l8-7,2.16-1.87-.51-2.81A27.64,27.64,0,0,1,17.51,50a27.52,27.52,0,0,1,.36-4.9l.51-2.81-2.16-1.87-8-7a42.35,42.35,0,0,1,6.57-11.38l10.12,3.52,2.69.94,2.18-1.85a30.5,30.5,0,0,1,8.55-5l2.57-1L41.39,16l2-10.48A41.66,41.66,0,0,1,50,5m0,68.76A23.75,23.75,0,1,0,26.25,50,23.78,23.78,0,0,0,50,73.76M50,0a47.91,47.91,0,0,0-9.47,1,2,2,0,0,0-1.66,1.61l-2.39,12.5a35.72,35.72,0,0,0-10,5.81l-12.06-4.2a1.81,1.81,0,0,0-.71-.15,1.93,1.93,0,0,0-1.48.74A47.85,47.85,0,0,0,2.79,33.71a1.81,1.81,0,0,0,.59,2.19L13,44.2A32.79,32.79,0,0,0,12.51,50,32.71,32.71,0,0,0,13,55.82l-9.57,8.3a1.83,1.83,0,0,0-.59,2.2,48,48,0,0,0,9.48,16.45,2,2,0,0,0,1.48.74,1.66,1.66,0,0,0,.71-.16l12.06-4.19a35.45,35.45,0,0,0,10,5.8l2.39,12.5a2,2,0,0,0,1.66,1.61,48.68,48.68,0,0,0,18.94,0,2,2,0,0,0,1.66-1.61L63.52,85a36.91,36.91,0,0,0,10-5.8l12.06,4.19a1.66,1.66,0,0,0,.71.16,2,2,0,0,0,1.48-.74,48,48,0,0,0,9.48-16.45,1.83,1.83,0,0,0-.59-2.2l-9.57-8.3A32.71,32.71,0,0,0,87.49,50a32.79,32.79,0,0,0-.44-5.81l9.57-8.3a1.81,1.81,0,0,0,.59-2.19,47.85,47.85,0,0,0-9.48-16.45,1.93,1.93,0,0,0-1.48-.74,1.81,1.81,0,0,0-.71.15l-12.06,4.2a37.2,37.2,0,0,0-10-5.81L61.13,2.56A2,2,0,0,0,59.47,1,47.91,47.91,0,0,0,50,0Zm0,68.76A18.75,18.75,0,1,1,68.75,50,18.69,18.69,0,0,1,50,68.76Z"/></svg>