<svg fill="#f66240" id="Layer_1" data-name="Layer 1" xmlns="http://www.w3.org/2000/svg" viewBox="0 0 100 100"><title>Share copy</title><path d="M98.51,46.21,53.9,1.6A5,5,0,0,0,50.33.1a5.1,5.1,0,0,0-5.14,5.08l-.06,21.23C-.35,26.41,1.2,63.79,0,85.64A5,5,0,0,0,5.12,91a5.07,5.07,0,0,0,3.67-1.57c11.55-11.7,16.8-17.5,36.11-19.08l-.08,24.42A5.1,5.1,0,0,0,50,99.9a5,5,0,0,0,3.57-1.5l45-45A5.1,5.1,0,0,0,98.51,46.21ZM52.84,87.77l.06-17.41,0-8.7-8.67.71C25.43,63.9,17.38,69.69,8.35,78.53c.46-9.63,1.35-20.85,5.82-29.29a24.63,24.63,0,0,1,10-10.39c5.3-3,12.34-4.44,20.92-4.44h8l0-8,0-14.25L90.8,49.82Z"/></svg>