<svg id="Layer_1" data-name="Layer 1" xmlns="http://www.w3.org/2000/svg" viewBox="0 0 100 100"><title>Sign</title><path d="M98.94,20.41,79.61,1.08a3.64,3.64,0,0,0-5.13,0L12.62,62.56l-.66,1L.17,96A3,3,0,0,0,3,100a2.8,2.8,0,0,0,.86-.13l29.32-9a3.3,3.3,0,0,0,1.23-.74L98.94,25.54A3.64,3.64,0,0,0,98.94,20.41ZM93.26,23,82.38,33.83,66.15,17.61,77.05,6.77Zm-15,15L75.18,41,59,24.78,62,21.73ZM18.77,89.1a12.4,12.4,0,0,0-3-4.91,15.53,15.53,0,0,0-4-2.83l5-13.81h6.78v5.89a2.94,2.94,0,0,0,3,3h5.21l-2,9.33Z"/></svg>