<svg id="Layer_1" data-name="Layer 1" xmlns="http://www.w3.org/2000/svg" viewBox="0 0 100 100"><title>Star</title><path d="M52.45,6.5h0M50,14,57,35.6a9.4,9.4,0,0,0,9,6.51H88.65L70.3,55.44A9.4,9.4,0,0,0,66.88,66l7,21.56L55.54,74.22a9.38,9.38,0,0,0-11.08,0L26.11,87.54l7-21.56A9.4,9.4,0,0,0,29.7,55.44L11.35,42.11H34a9.4,9.4,0,0,0,9-6.51L50,14M50,2.28a3.37,3.37,0,0,0-3.26,2.37L37.29,33.74A3.44,3.44,0,0,1,34,36.11H3.43a3.43,3.43,0,0,0-2,6.2l24.75,18a3.45,3.45,0,0,1,1.25,3.83L18,93.22a3.44,3.44,0,0,0,3.27,4.5,3.34,3.34,0,0,0,2-.67L48,79.07a3.39,3.39,0,0,1,4,0l24.76,18a3.34,3.34,0,0,0,2,.67A3.44,3.44,0,0,0,82,93.22l-9.46-29.1a3.45,3.45,0,0,1,1.25-3.83l24.75-18a3.43,3.43,0,0,0-2-6.2H66a3.44,3.44,0,0,1-3.26-2.37L53.26,4.65A3.37,3.37,0,0,0,50,2.28Z"/></svg>