<svg xmlns="http://www.w3.org/2000/svg" viewBox="0 0 100 100"><title>Sync Contacts</title><path d="M82.56,0h-68a6,6,0,0,0-6,6V20H4.89a4.22,4.22,0,0,0,0,8.44H8.56V72H4.89a4.22,4.22,0,0,0,0,8.44H8.56V94a6,6,0,0,0,6,6h68a6,6,0,0,0,6-6V6A6,6,0,0,0,82.56,0Zm-2,92h-64V8h64Z"/><path d="M82.56,0h-68a6,6,0,0,0-6,6V20H4.89a4.22,4.22,0,0,0,0,8.44H8.56V72H4.89a4.22,4.22,0,0,0,0,8.44H8.56V94a6,6,0,0,0,6,6h68a6,6,0,0,0,6-6V6A6,6,0,0,0,82.56,0Zm-2,92h-64V8h64Z"/><path d="M93.56,0h-3a9.94,9.94,0,0,1,2,6V94a9.94,9.94,0,0,1-2,6h3a6,6,0,0,0,6-6V6A6,6,0,0,0,93.56,0Z"/><path d="M60,40.79A4.95,4.95,0,1,0,55,35.84,5,5,0,0,0,60,40.79Zm0-7.93a3,3,0,1,1-3,3A3,3,0,0,1,60,32.86Z"/><path d="M48.61,40.79a4.95,4.95,0,1,0-4.94-4.95A5,5,0,0,0,48.61,40.79Zm0-7.93a3,3,0,1,1-3,3A3,3,0,0,1,48.61,32.86Z"/><path d="M63.29,41.79H59.08a1,1,0,0,0,0,2h4.21a3,3,0,0,1,2.95,2.94V53a3,3,0,0,1-1.94,2.76,1,1,0,0,0-.64.93v8.84a1.94,1.94,0,0,1-1.94,2H57.27a1,1,0,1,0,0,2h4.45a3.91,3.91,0,0,0,3.9-3.91V57.26A4.92,4.92,0,0,0,68.2,53V46.68A4.9,4.9,0,0,0,63.29,41.79Z"/><path d="M57.32,46.68a4.91,4.91,0,0,0-4.91-4.9H44.8a4.91,4.91,0,0,0-4.9,4.9V53a4.93,4.93,0,0,0,2.57,4.31v8.22a3.92,3.92,0,0,0,3.92,3.9h4.45a3.91,3.91,0,0,0,3.9-3.9V57.26A4.92,4.92,0,0,0,57.32,53Zm-2,6.27a3,3,0,0,1-1.92,2.76,1,1,0,0,0-.64.92v8.85a2,2,0,0,1-1.95,1.94H46.4a1.94,1.94,0,0,1-1.94-1.94V56.63a1,1,0,0,0-.64-.92,2.94,2.94,0,0,1-2-2.76V46.68a2.94,2.94,0,0,1,2.94-2.94h7.61a2.94,2.94,0,0,1,2.94,2.94Z"/><path d="M37.25,40.79a4.95,4.95,0,1,0-5-4.95A5,5,0,0,0,37.25,40.79Zm0-7.93a3,3,0,1,1-3,3A3,3,0,0,1,37.25,32.86Z"/><path d="M40,67.42H35.51a2,2,0,0,1-1.95-2V56.63a1,1,0,0,0-.64-.92A3,3,0,0,1,31,53V46.68a3,3,0,0,1,2.95-2.94h4.19a1,1,0,0,0,0-2h-4.2A4.91,4.91,0,0,0,29,46.68v6.26a4.9,4.9,0,0,0,2.58,4.31v8.22a3.91,3.91,0,0,0,3.91,3.91H40a1,1,0,1,0,0-2Z"/></svg>