<?xml version="1.0" encoding="UTF-8"?>
<svg  width="98px" height="100px" viewBox="0 0 98 100" version="1.1" xmlns="http://www.w3.org/2000/svg" xmlns:xlink="http://www.w3.org/1999/xlink">
    <!-- Generator: Sketch 48.2 (47327) - http://www.bohemiancoding.com/sketch -->
    <title>@</title>
    <desc>Created with Sketch.</desc>
    <defs></defs>
    <g id="Page-1" stroke="none" stroke-width="1" fill="none" fill-rule="evenodd">
        <g id="Icons" transform="translate(-634.000000, -1041.000000)" fill="#000000">
            <g id="@" transform="translate(634.000000, 1041.000000)">
                <path fill="#f66240" d="M97.1583221,40.5953992 C97.1583221,52.368065 92.8281461,62.2462788 86.6035183,68.7415426 C80.7848444,75.1014885 73.2070365,78.7550744 66.3058187,78.7550744 C58.9986468,78.7550744 55.8863329,75.1014885 54.9391069,70.2300406 C49.391069,75.7780785 43.4370771,78.7550744 37.6184032,78.7550744 C31.6644114,78.7550744 21.2449256,74.6955345 21.2449256,57.9161028 C21.2449256,41.1366712 33.6941813,21.3802436 51.420839,21.3802436 C63.0581867,21.3802436 66.9824087,28.1461434 66.9824087,28.1461434 L68.3355886,23.8159675 L77.1312585,23.8159675 L65.6292287,59.9458728 C63.7347767,66.1705007 63.3288227,71.0419486 69.0121786,71.0419486 C77.8078484,71.0419486 89.3098782,58.7280108 89.3098782,40.8660352 C89.3098782,21.9215156 74.4248985,7.17185386 51.150203,7.17185386 C27.7401894,7.17185386 8.25439783,25.3044655 8.25439783,50.879567 C8.25439783,76.4546685 24.8985115,92.8281461 48.037889,92.8281461 C68.7415426,92.8281461 81.1907984,84.0324763 84.3031123,82.1380244 L87.2801083,87.6860622 C84.5737483,89.4451962 72.2598106,100 47.3612991,100 C20.8389716,100 0,80.9201624 0,50.879567 C0,20.7036536 24.3572395,0 50.879567,0 C65.8998647,0 77.2665765,5.0067659 85.1150203,12.4492558 C92.4221922,19.3504736 97.1583221,29.2286874 97.1583221,40.5953992 Z M58.7280108,53.9918809 L64.6820027,35.4533153 C64.4113667,35.3179973 61.5696888,28.8227334 51.556157,28.8227334 C45.1962111,28.8227334 40.3247632,32.4763194 36.8064953,37.4830853 C32.7469553,43.0311231 30.3112314,50.608931 30.3112314,57.1041949 C30.3112314,68.0649526 35.8592693,70.7713126 40.7307172,70.7713126 C45.7374831,70.7713126 54.6684709,67.1177267 58.7280108,53.9918809 Z"></path>
            </g>
        </g>
    </g>
</svg>