<svg id="Layer_1" data-name="Layer 1" xmlns="http://www.w3.org/2000/svg" viewBox="0 0 100 100"><title>Twitter (outline)</title><path d="M94,19.66c-1.23.52-2.49,1-3.76,1.39a21.21,21.21,0,0,0,3.44-6.79l1.41-4.64-4.16,2.49a36.94,36.94,0,0,1-10.47,4.25A21,21,0,0,0,44.9,31.64c0,.78,0,1.57.11,2.32A52.87,52.87,0,0,1,8.89,14.59l-1.78-2.2-1.33,2.5a22.37,22.37,0,0,0-2.73,10.6A21.25,21.25,0,0,0,7.33,38.33a17.38,17.38,0,0,1-1.67-.84L2.85,35.86v3.45a21.13,21.13,0,0,0,9.07,17.42l-3.15-.56.91,2.93a20.46,20.46,0,0,0,14.7,13.7A35.65,35.65,0,0,1,5.52,78.5c-1.13,0-2.32-.13-3.48-.24l-.84-.09L0,81.61a55.77,55.77,0,0,0,30.44,8.77C65.84,90.38,87,61.62,87,33.82V32.26a43,43,0,0,0,9.25-9.8L100,17.12ZM30.44,84.75a52.29,52.29,0,0,1-14.66-2,45.94,45.94,0,0,0,15.91-8.17,3.74,3.74,0,0,0-2.25-6.7A15.54,15.54,0,0,1,17.85,62.5a17.43,17.43,0,0,0,3.33-.62,3.75,3.75,0,0,0-.25-7.26A15.72,15.72,0,0,1,9.47,44.86a20.64,20.64,0,0,0,3.91.38,3.75,3.75,0,0,0,2.08-6.87A15.19,15.19,0,0,1,8.67,25.49a15.57,15.57,0,0,1,.21-2.55A58.8,58.8,0,0,0,47,39.74h.2a3.75,3.75,0,0,0,2.88-1.35,3.79,3.79,0,0,0,.76-3.27,15.74,15.74,0,0,1-.36-3.49A15.35,15.35,0,0,1,77.09,21a3.78,3.78,0,0,0,2.75,1.2,3.94,3.94,0,0,0,.77-.08l.09,0a3.78,3.78,0,0,0-.64,3.6,3.74,3.74,0,0,0,3,2.48l-.14.1a3.75,3.75,0,0,0-1.59,3.07v2.51A52.8,52.8,0,0,1,68.26,68.21C61.62,75.75,49.66,84.75,30.44,84.75Z"/></svg>