<svg id="Layer_1" data-name="Layer 1" fill="#fff" xmlns="http://www.w3.org/2000/svg" viewBox="0 0 100 100"><title>Twitter</title><path d="M100,22.14a46.17,46.17,0,0,1-11.86,3.25A19.7,19.7,0,0,0,97,14a41.39,41.39,0,0,1-12.85,5A20.37,20.37,0,0,0,48.84,33.08a21.09,21.09,0,0,0,.49,4.66A58.29,58.29,0,0,1,6.85,16.15,21.93,21.93,0,0,0,4.16,26.52a20.3,20.3,0,0,0,9,17.08A18.54,18.54,0,0,1,4,41.06v.21A20.73,20.73,0,0,0,20.4,61.52a19.1,19.1,0,0,1-5.37.64,22.85,22.85,0,0,1-3.88-.35,20.11,20.11,0,0,0,19.13,13.9c-7.06,5.5-15.74,9.38-25.48,9.38-1.62,0-3.32-.21-4.8-.35a57.52,57.52,0,0,0,31.4,9c37.83,0,58.37-31.26,58.37-58.36V32.73A42.74,42.74,0,0,0,100,22.14Z"/></svg>