<svg id="Layer_1" data-name="Layer 1" xmlns="http://www.w3.org/2000/svg" viewBox="0 0 100 100"><title>Twtter Verified</title><path fill="#4a90e2" d="M97.27,42.6,92,36.43a11.45,11.45,0,0,1-2.69-6.51l-.64-8.09A11.45,11.45,0,0,0,78.19,11.34l-8.08-.65A11.45,11.45,0,0,1,63.6,8L57.43,2.73a11.44,11.44,0,0,0-14.83,0L36.43,8a11.45,11.45,0,0,1-6.51,2.69l-8.09.64A11.45,11.45,0,0,0,11.34,21.81l-.65,8.08A11.45,11.45,0,0,1,8,36.4L2.73,42.57a11.44,11.44,0,0,0,0,14.83L8,63.57a11.45,11.45,0,0,1,2.69,6.51l.64,8.09A11.45,11.45,0,0,0,21.81,88.66l8.08.65A11.45,11.45,0,0,1,36.4,92l6.17,5.27a11.44,11.44,0,0,0,14.83,0L63.57,92a11.45,11.45,0,0,1,6.51-2.69l8.09-.64A11.45,11.45,0,0,0,88.66,78.19l.65-8.08A11.45,11.45,0,0,1,92,63.6l5.27-6.17A11.44,11.44,0,0,0,97.27,42.6ZM42.71,72h0L21.84,51.16,30.4,42.6,42.7,54.9,69.6,28l8.56,8.56Z"/></svg>